<svg class="background" preserveAspectRatio="none" width="183" height="50" viewBox="0 0 183 50" fill="none" xmlns="http://www.w3.org/2000/svg"><path d="M170.79 49.413L9.671 50a7.406 7.406 0 01-7.416-6.968L.015 7.884A7.406 7.406 0 017.401 0h167.371a7.39 7.39 0 015.528 2.482 7.39 7.39 0 011.818 5.78l-3.982 34.57a7.398 7.398 0 01-7.346 6.58z"/><path d="M170.79 49.413L9.671 50a7.406 7.406 0 01-7.416-6.968L.015 7.884A7.406 7.406 0 017.401 0h167.371a7.39 7.39 0 015.528 2.482 7.39 7.39 0 011.818 5.78l-3.982 34.57a7.398 7.398 0 01-7.346 6.58z"/></svg>