<svg width="190" height="190" viewBox="0 0 190 190" fill="none" xmlns="http://www.w3.org/2000/svg">
<path d="M95 7.63989C77.2915 7.64385 59.9819 12.8986 45.2597 22.7398C30.5376 32.581 19.0641 46.5666 12.2901 62.9283C5.5161 79.2899 3.74577 97.2928 7.20295 114.661C10.6601 132.028 19.1895 147.981 31.7127 160.501C44.2359 173.022 60.1905 181.548 77.559 185.001C94.9275 188.454 112.93 186.68 129.29 179.902C145.65 173.125 159.633 161.648 169.471 146.924C179.309 132.199 184.56 114.888 184.56 97.1799C184.56 73.4324 175.126 50.6575 158.334 33.8655C141.542 17.0735 118.768 7.63989 95.02 7.63989H95Z" fill="url(#paint0_linear_604_236)"/>
<path d="M95 7.63989C77.2915 7.64385 59.9819 12.8986 45.2597 22.7398C30.5376 32.581 19.0641 46.5666 12.2901 62.9283C5.5161 79.2899 3.74577 97.2928 7.20295 114.661C10.6601 132.028 19.1895 147.981 31.7127 160.501C44.2359 173.022 60.1905 181.548 77.559 185.001C94.9275 188.454 112.93 186.68 129.29 179.902C145.65 173.125 159.633 161.648 169.471 146.924C179.309 132.199 184.56 114.888 184.56 97.1799C184.56 73.4324 175.126 50.6575 158.334 33.8655C141.542 17.0735 118.768 7.63989 95.02 7.63989H95Z" fill="url(#paint1_radial_604_236)"/>
<path style="mix-blend-mode:multiply" d="M94.9799 8.17993C77.8081 8.17993 61.0219 13.2721 46.7443 22.8124C32.4666 32.3528 21.3387 45.9128 14.7678 61.7777C8.19685 77.6426 6.47813 95.0996 9.82891 111.941C13.1797 128.783 21.4495 144.253 33.5925 156.394C45.7355 168.536 61.2062 176.804 78.0483 180.153C94.8904 183.502 112.347 181.781 128.211 175.208C144.076 168.636 157.634 157.506 167.173 143.227C176.712 128.949 181.802 112.162 181.8 94.9899C181.797 71.9656 172.649 49.8852 156.367 33.6054C140.086 17.3257 118.004 8.17993 94.9799 8.17993V8.17993Z" fill="url(#paint2_radial_604_236)"/>
<path style="mix-blend-mode:multiply" d="M95.0501 8.25C77.895 8.25198 61.1257 13.3409 46.8627 22.8732C32.5996 32.4055 21.4835 45.9531 14.9199 61.803C8.35629 77.6528 6.64001 95.093 9.98802 111.918C13.336 128.744 21.598 144.198 33.7292 156.328C45.8604 168.458 61.316 176.718 78.1416 180.064C94.9673 183.41 112.407 181.692 128.256 175.126C144.105 168.561 157.652 157.443 167.182 143.179C176.713 128.915 181.8 112.145 181.8 94.99C181.797 71.9842 172.657 49.9216 156.388 33.655C140.12 17.3883 118.056 8.25 95.0501 8.25V8.25Z" fill="url(#paint3_radial_604_236)"/>
<path d="M95.0001 10C111.811 10 128.245 14.9852 142.224 24.3251C156.202 33.665 167.096 46.9402 173.53 62.4719C179.963 78.0036 181.647 95.0943 178.367 111.583C175.087 128.071 166.992 143.217 155.104 155.104C143.217 166.992 128.071 175.087 111.583 178.367C95.0944 181.647 78.0037 179.963 62.472 173.53C46.9403 167.096 33.6651 156.202 24.3251 142.223C14.9852 128.245 10.0001 111.811 10.0001 95C10.0265 72.4647 18.9904 50.86 34.9252 34.9252C50.8601 18.9903 72.4648 10.0265 95.0001 10V10ZM95.0001 0C76.2108 0 57.8436 5.57164 42.2209 16.0104C26.5982 26.4491 14.4218 41.2861 7.2315 58.6451C0.0411773 76.0041 -1.84016 95.1054 1.82544 113.534C5.49103 131.962 14.5389 148.889 27.8249 162.175C41.1109 175.461 58.0383 184.509 76.4665 188.175C94.8947 191.84 113.996 189.959 131.355 182.769C148.714 175.578 163.551 163.402 173.99 147.779C184.428 132.157 190 113.789 190 95C190 69.8044 179.991 45.6408 162.175 27.8249C144.359 10.0089 120.196 0 95.0001 0Z" fill="url(#paint4_linear_604_236)"/>
<g style="mix-blend-mode:overlay" opacity="0.4">
<path d="M95 179.98C141.939 179.98 179.99 141.929 179.99 94.99C179.99 48.0513 141.939 10 95 10C48.0613 10 10.01 48.0513 10.01 94.99C10.01 141.929 48.0613 179.98 95 179.98Z" fill="white"/>
</g>
<defs>
<linearGradient id="paint0_linear_604_236" x1="37.61" y1="28.4499" x2="152.39" y2="165.91" gradientUnits="userSpaceOnUse">
<stop stop-color="#312A30"/>
<stop offset="1" stop-color="#756A74"/>
</linearGradient>
<radialGradient id="paint1_radial_604_236" cx="0" cy="0" r="1" gradientUnits="userSpaceOnUse" gradientTransform="translate(53.9724 54.7327) scale(136.613)">
<stop stop-color="#D0FF00"/>
<stop offset="0.14" stop-color="#CAF700"/>
<stop offset="0.35" stop-color="#B9E200"/>
<stop offset="0.61" stop-color="#9DC000"/>
<stop offset="0.73" stop-color="#8EAD00"/>
<stop offset="0.78" stop-color="#89A800"/>
<stop offset="0.86" stop-color="#799900"/>
<stop offset="0.93" stop-color="#5F8000"/>
<stop offset="1" stop-color="#446600"/>
</radialGradient>
<radialGradient id="paint2_radial_604_236" cx="0" cy="0" r="1" gradientUnits="userSpaceOnUse" gradientTransform="translate(94.0387 92.3283) scale(89.494)">
<stop offset="0.84" stop-color="white"/>
<stop offset="0.85" stop-color="#EDF5EF"/>
<stop offset="0.89" stop-color="#BEDBC6"/>
<stop offset="0.93" stop-color="#72B284"/>
<stop offset="0.99" stop-color="#0B792A"/>
<stop offset="1" stop-color="#007321"/>
</radialGradient>
<radialGradient id="paint3_radial_604_236" cx="0" cy="0" r="1" gradientUnits="userSpaceOnUse" gradientTransform="translate(99.5721 99.6944) scale(97.44)">
<stop offset="0.88" stop-color="white"/>
<stop offset="0.9" stop-color="#D1DBD5"/>
<stop offset="0.97" stop-color="#3C6550"/>
<stop offset="1" stop-color="#00361A"/>
</radialGradient>
<linearGradient id="paint4_linear_604_236" x1="4.67005" y1="-33.36" x2="159.15" y2="186.14" gradientUnits="userSpaceOnUse">
<stop stop-color="#C3C3C3"/>
<stop offset="0.91" stop-color="white"/>
</linearGradient>
</defs>
</svg>
