<svg width="190" height="190" viewBox="0 0 190 190" fill="none" xmlns="http://www.w3.org/2000/svg">
<path d="M95.0001 7.64002C77.2911 7.64199 59.9805 12.8951 45.257 22.7351C30.5335 32.5751 19.0585 46.56 12.283 62.9214C5.50747 79.2829 3.73565 97.2861 7.1917 114.655C10.6478 132.023 19.1765 147.976 31.6993 160.498C44.2221 173.019 60.1766 181.546 77.5453 185C94.9141 188.454 112.917 186.681 129.278 179.903C145.639 173.126 159.622 161.649 169.46 146.925C179.299 132.2 184.55 114.889 184.55 97.18C184.55 85.4206 182.234 73.7764 177.733 62.9122C173.233 52.0481 166.636 42.1768 158.321 33.8621C150.005 25.5474 140.133 18.9522 129.269 14.4529C118.404 9.95372 106.759 7.6387 95.0001 7.64002Z" fill="url(#paint0_linear_603_346)"/>
<path d="M95.0001 7.64002C77.2911 7.64199 59.9805 12.8951 45.257 22.7351C30.5335 32.5751 19.0585 46.56 12.283 62.9214C5.50747 79.2829 3.73565 97.2861 7.1917 114.655C10.6478 132.023 19.1765 147.976 31.6993 160.498C44.2221 173.019 60.1766 181.546 77.5453 185C94.9141 188.454 112.917 186.681 129.278 179.903C145.639 173.126 159.622 161.649 169.46 146.925C179.299 132.2 184.55 114.889 184.55 97.18C184.55 85.4206 182.234 73.7764 177.733 62.9122C173.233 52.0481 166.636 42.1768 158.321 33.8621C150.005 25.5474 140.133 18.9522 129.269 14.4529C118.404 9.95372 106.759 7.6387 95.0001 7.64002Z" fill="url(#paint1_radial_603_346)"/>
<path style="mix-blend-mode:multiply" d="M94.9799 8.17993C77.8086 8.18191 61.0234 13.2758 46.747 22.8173C32.4706 32.3589 21.3442 45.9196 14.7748 61.7846C8.20548 77.6496 6.48825 95.1065 9.84016 111.948C13.1921 128.789 21.4626 144.257 33.606 156.398C45.7494 168.539 61.2201 176.806 78.062 180.154C94.9038 183.502 112.36 181.78 128.224 175.207C144.087 168.634 157.645 157.505 167.184 143.226C176.722 128.948 181.812 112.161 181.81 94.9899C181.809 83.5886 179.562 72.2991 175.197 61.7661C170.833 51.2331 164.437 41.6629 156.374 33.6019C148.311 25.5408 138.739 19.1468 128.205 14.7849C117.671 10.423 106.381 8.17862 94.9799 8.17993Z" fill="url(#paint2_radial_603_346)"/>
<path style="mix-blend-mode:multiply" d="M94.9799 8.17993C77.8086 8.18191 61.0234 13.2758 46.747 22.8173C32.4706 32.3589 21.3442 45.9196 14.7748 61.7846C8.20548 77.6496 6.48825 95.1065 9.84016 111.948C13.1921 128.789 21.4626 144.257 33.606 156.398C45.7494 168.539 61.2201 176.806 78.062 180.154C94.9038 183.502 112.36 181.78 128.224 175.207C144.087 168.634 157.645 157.505 167.184 143.226C176.722 128.948 181.812 112.161 181.81 94.9899C181.809 83.5886 179.562 72.2991 175.197 61.7661C170.833 51.2331 164.437 41.6629 156.374 33.6019C148.311 25.5408 138.739 19.1468 128.205 14.7849C117.671 10.423 106.381 8.17862 94.9799 8.17993Z" fill="url(#paint3_radial_603_346)"/>
<path d="M95 10C111.811 10 128.245 14.9852 142.224 24.3251C156.202 33.665 167.096 46.9402 173.53 62.4719C179.963 78.0036 181.646 95.0943 178.367 111.583C175.087 128.071 166.992 143.217 155.104 155.104C143.217 166.992 128.071 175.087 111.583 178.367C95.0943 181.646 78.0037 179.963 62.4719 173.53C46.9402 167.096 33.665 156.202 24.3251 142.223C14.9852 128.245 10 111.811 10 95C10.0238 72.4639 18.9868 50.8577 34.9223 34.9222C50.8577 18.9868 72.4639 10.0238 95 10ZM95 0C76.2108 0 57.8435 5.57164 42.2208 16.0104C26.5982 26.4491 14.4218 41.2861 7.23146 58.6451C0.041132 76.0041 -1.84014 95.1054 1.82545 113.534C5.49105 131.962 14.5389 148.889 27.8248 162.175C41.1108 175.461 58.0382 184.509 76.4664 188.175C94.8946 191.84 113.996 189.959 131.355 182.769C148.714 175.578 163.551 163.402 173.99 147.779C184.428 132.157 190 113.789 190 95C190 69.8044 179.991 45.6408 162.175 27.8249C144.359 10.0089 120.196 0 95 0Z" fill="url(#paint4_linear_603_346)"/>
<g style="mix-blend-mode:overlay" opacity="0.4">
<path d="M95 179.98C141.939 179.98 179.99 141.929 179.99 94.99C179.99 48.0513 141.939 10 95 10C48.0613 10 10.01 48.0513 10.01 94.99C10.01 141.929 48.0613 179.98 95 179.98Z" fill="white"/>
</g>
<defs>
<linearGradient id="paint0_linear_603_346" x1="37.61" y1="28.44" x2="152.4" y2="165.91" gradientUnits="userSpaceOnUse">
<stop stop-color="#312A30"/>
<stop offset="1" stop-color="#756A74"/>
</linearGradient>
<radialGradient id="paint1_radial_603_346" cx="0" cy="0" r="1" gradientUnits="userSpaceOnUse" gradientTransform="translate(54.2838 55.4038) scale(136.769)">
<stop stop-color="#FFD500"/>
<stop offset="0.13" stop-color="#FFCD00"/>
<stop offset="0.33" stop-color="#FFB800"/>
<stop offset="0.57" stop-color="#FF9600"/>
<stop offset="0.73" stop-color="#FF7B00"/>
<stop offset="0.8" stop-color="#FB7600"/>
<stop offset="0.88" stop-color="#EF6600"/>
<stop offset="0.98" stop-color="#DC4C00"/>
<stop offset="1" stop-color="#D64400"/>
</radialGradient>
<radialGradient id="paint2_radial_603_346" cx="0" cy="0" r="1" gradientUnits="userSpaceOnUse" gradientTransform="translate(94.3853 93.8589) scale(85.2306)">
<stop offset="0.84" stop-color="white"/>
<stop offset="0.85" stop-color="#F5F2ED"/>
<stop offset="0.89" stop-color="#DBCFBE"/>
<stop offset="0.93" stop-color="#B29772"/>
<stop offset="0.99" stop-color="#794B0B"/>
<stop offset="1" stop-color="#734300"/>
</radialGradient>
<radialGradient id="paint3_radial_603_346" cx="0" cy="0" r="1" gradientUnits="userSpaceOnUse" gradientTransform="translate(99.8537 100.415) scale(97.608)">
<stop offset="0.88" stop-color="white"/>
<stop offset="0.9" stop-color="#DBD6D1"/>
<stop offset="0.97" stop-color="#65543C"/>
<stop offset="1" stop-color="#361F00"/>
</radialGradient>
<linearGradient id="paint4_linear_603_346" x1="34.11" y1="22.07" x2="155.9" y2="167.91" gradientUnits="userSpaceOnUse">
<stop stop-color="#C3C3C3"/>
<stop offset="0.91" stop-color="white"/>
</linearGradient>
</defs>
</svg>
