<svg width="190" height="190" viewBox="0 0 190 190" fill="none" xmlns="http://www.w3.org/2000/svg">
<path style="mix-blend-mode:multiply" d="M98.3201 8.17993C81.1487 8.17993 64.3629 13.2719 50.0854 22.8118C35.808 32.3517 24.68 45.9111 18.1088 61.7754C11.5376 77.6397 9.81829 95.0963 13.1683 111.938C16.5182 128.779 24.787 144.249 36.929 156.391C49.071 168.533 64.5409 176.802 81.3823 180.152C98.2237 183.502 115.68 181.782 131.545 175.211C147.409 168.64 160.968 157.512 170.508 143.235C180.048 128.957 185.14 112.171 185.14 94.9999C185.14 71.9738 175.993 49.8909 159.711 33.6089C143.429 17.327 121.346 8.17993 98.3201 8.17993Z" fill="url(#paint0_radial_603_313)"/>
<path d="M95 7.64002C77.2915 7.64397 59.9819 12.8987 45.2598 22.7399C30.5376 32.5811 19.0642 46.5668 12.2902 62.9284C5.51615 79.2901 3.74575 97.2929 7.20293 114.661C10.6601 132.028 19.1896 147.981 31.7128 160.501C44.2359 173.022 60.1904 181.548 77.559 185.001C94.9275 188.454 112.93 186.68 129.29 179.902C145.65 173.125 159.633 161.648 169.471 146.924C179.309 132.199 184.56 114.888 184.56 97.18C184.56 85.4197 182.243 73.7747 177.742 62.9099C173.241 52.0451 166.644 42.1734 158.327 33.8586C150.011 25.5438 140.137 18.9487 129.272 14.4501C118.406 9.95145 106.76 7.63739 95 7.64002Z" fill="url(#paint1_linear_603_313)"/>
<path d="M95 7.64002C77.2915 7.64397 59.9819 12.8987 45.2598 22.7399C30.5376 32.5811 19.0642 46.5668 12.2902 62.9284C5.51615 79.2901 3.74575 97.2929 7.20293 114.661C10.6601 132.028 19.1896 147.981 31.7128 160.501C44.2359 173.022 60.1904 181.548 77.559 185.001C94.9275 188.454 112.93 186.68 129.29 179.902C145.65 173.125 159.633 161.648 169.471 146.924C179.309 132.199 184.56 114.888 184.56 97.18C184.56 85.4197 182.243 73.7747 177.742 62.9099C173.241 52.0451 166.644 42.1734 158.327 33.8586C150.011 25.5438 140.137 18.9487 129.272 14.4501C118.406 9.95145 106.76 7.63739 95 7.64002Z" fill="url(#paint2_radial_603_313)"/>
<path style="mix-blend-mode:multiply" d="M94.99 8.17993C77.8186 8.17993 61.0329 13.2719 46.7554 22.8118C32.4779 32.3517 21.35 45.9111 14.7788 61.7754C8.2076 77.6397 6.48828 95.0963 9.83825 111.938C13.1882 128.779 21.4571 144.249 33.599 156.391C45.741 168.533 61.2108 176.802 78.0522 180.152C94.8937 183.502 112.35 181.782 128.215 175.211C144.079 168.64 157.638 157.512 167.178 143.235C176.718 128.957 181.81 112.171 181.81 94.9999C181.81 71.9738 172.663 49.8909 156.381 33.6089C140.099 17.327 118.016 8.17993 94.99 8.17993Z" fill="url(#paint3_radial_603_313)"/>
<path d="M95 10C111.811 10 128.245 14.9852 142.224 24.3251C156.202 33.665 167.096 46.9402 173.53 62.4719C179.963 78.0036 181.647 95.0943 178.367 111.583C175.087 128.071 166.992 143.217 155.104 155.104C143.217 166.992 128.071 175.087 111.583 178.367C95.0944 181.646 78.0036 179.963 62.4719 173.53C46.9402 167.096 33.6651 156.202 24.3251 142.223C14.9852 128.245 10.0001 111.811 10.0001 95C10.0239 72.4639 18.9869 50.8577 34.9223 34.9222C50.8577 18.9868 72.4639 10.0238 95 10ZM95 0C76.2108 0 57.8436 5.57164 42.2209 16.0104C26.5982 26.4491 14.4218 41.2861 7.2315 58.6451C0.0411773 76.0041 -1.84016 95.1054 1.82544 113.534C5.49103 131.962 14.5389 148.889 27.8249 162.175C41.1109 175.461 58.0382 184.509 76.4664 188.175C94.8946 191.84 113.996 189.959 131.355 182.769C148.714 175.578 163.551 163.402 173.99 147.779C184.428 132.157 190 113.789 190 95C190 69.8044 179.991 45.6408 162.175 27.8249C144.359 10.0089 120.196 0 95 0Z" fill="url(#paint4_linear_603_313)"/>
<g style="mix-blend-mode:overlay" opacity="0.4">
<path d="M95.01 179.98C141.949 179.98 180 141.929 180 94.99C180 48.0513 141.949 10 95.01 10C48.0713 10 10.02 48.0513 10.02 94.99C10.02 141.929 48.0713 179.98 95.01 179.98Z" fill="white"/>
</g>
<defs>
<radialGradient id="paint0_radial_603_313" cx="0" cy="0" r="1" gradientUnits="userSpaceOnUse" gradientTransform="translate(102.737 99.8349) scale(97.5732)">
<stop offset="0.88" stop-color="white"/>
<stop offset="0.9" stop-color="#D1D7DB"/>
<stop offset="0.97" stop-color="#3C5565"/>
<stop offset="1" stop-color="#002136"/>
</radialGradient>
<linearGradient id="paint1_linear_603_313" x1="37.61" y1="28.45" x2="152.4" y2="165.91" gradientUnits="userSpaceOnUse">
<stop stop-color="#312A30"/>
<stop offset="1" stop-color="#756A74"/>
</linearGradient>
<radialGradient id="paint2_radial_603_313" cx="0" cy="0" r="1" gradientUnits="userSpaceOnUse" gradientTransform="translate(53.8588 54.8428) scale(136.69)">
<stop stop-color="#00FFE1"/>
<stop offset="0.11" stop-color="#00F7DF"/>
<stop offset="0.29" stop-color="#00E2D8"/>
<stop offset="0.5" stop-color="#00BFCD"/>
<stop offset="0.73" stop-color="#0093BF"/>
<stop offset="0.78" stop-color="#038FBA"/>
<stop offset="0.84" stop-color="#0A83AA"/>
<stop offset="0.91" stop-color="#166F90"/>
<stop offset="0.99" stop-color="#26546C"/>
<stop offset="1" stop-color="#294F66"/>
</radialGradient>
<radialGradient id="paint3_radial_603_313" cx="0" cy="0" r="1" gradientUnits="userSpaceOnUse" gradientTransform="translate(93.9448 93.2865) scale(85.17)">
<stop offset="0.84" stop-color="white"/>
<stop offset="0.85" stop-color="#EDF2F5"/>
<stop offset="0.89" stop-color="#BED2DB"/>
<stop offset="0.93" stop-color="#729DB2"/>
<stop offset="0.99" stop-color="#0B5579"/>
<stop offset="1" stop-color="#004D73"/>
</radialGradient>
<linearGradient id="paint4_linear_603_313" x1="34.11" y1="22.07" x2="155.9" y2="167.91" gradientUnits="userSpaceOnUse">
<stop stop-color="#C3C3C3"/>
<stop offset="0.91" stop-color="white"/>
</linearGradient>
</defs>
</svg>
