<svg width="80" height="74" viewBox="0 0 80 74" fill="none" xmlns="http://www.w3.org/2000/svg"><path d="M19.809 38.198l.145 7.158-7.303-.283c0 10.925.542 20.398.909 27.051l-6.066.314c.398-6.975.16-16.349 0-26.738a43.298 43.298 0 00-7.188.596A41.702 41.702 0 000 39.42c5.378-.076 11.981-.484 19.809-1.222zm21.39 2.055l8.136 21.543c.046-3.377-.313-10.16-.565-23.598h5.348c-.191 9.22.107 19.801.382 34.988l-5.256.237c-1.93-4.818-5.007-12.253-9.229-22.307-.13 6.616-.084 15.21.092 20.543l-5.233.137c.16-7.02.053-19.412-.283-31.902l6.608.359zm14.943-.168l5.523-1.047 5.799 12.987 7.303-13.674L80 39.726 69.77 57.487c-.045 5.603.019 10.44.192 14.515l-5.753.16c.357-6.355.515-11.26.474-14.713l-8.54-17.364zm-32.85.626v.306a3.184 3.184 0 003.056 3.33 3.186 3.186 0 003.316-3.323v-.313a3.193 3.193 0 00-5.368-2.197 3.209 3.209 0 00-1.019 2.167l.016.03zm.994 6.876c-.128 9.07-.326 17.219-.596 24.446h6.264c-.558-10.275-.764-18.19-.978-24.355l-4.69-.091z" fill="url(#paint0_linear_706_70)"/><path d="M11.222 1.254c2.812 1.202 4.24 3.886 4.286 8.052.046 4.166-1.464 6.895-4.53 8.189 4.996.78 6.9 3.835 5.714 9.167-1.187 5.333-6.605 7.742-16.257 7.227A3857.308 3857.308 0 000 .215c4.67-.49 8.411-.143 11.222 1.039zM4.584 19.726l-.13 8.54c5.337-.35 8.05-1.802 8.136-4.354.086-2.551-2.582-3.947-8.006-4.186zm.183-14.05l.336 9.053c4.12-.29 6.239-1.889 6.356-4.797.16-2.941-2.07-4.354-6.692-4.255zm27.853-4.27l-.122 6.57a119.377 119.377 0 00-9.075-.336l.145 8.304 7.639.077v4.896h-7.135v6.402l8.403-.122v5.393a247.25 247.25 0 00-13.377-.099c.276-9.355.2-19.508-.229-30.458 4.666-.22 9.25-.428 13.751-.627zm8.404 2.49l7.15 18.954c.046-2.974-.043-10.359-.267-22.154h4.721c-.168 8.113-.133 18.849.107 32.208l-4.607.168c-1.696-4.222-4.397-10.762-8.105-19.618-.115 5.813.053 13.904.206 18.587l-4.584.122c.138-6.173-.084-17.571-.381-28.58l5.76.314zm28.495-2.49l-.123 6.57a118.37 118.37 0 00-9.045-.336l.16 7.128 8.03.084-.42 4.897H61v7.57l8.403-.122v5.393c-4.308-.132-8.75-.152-13.323-.06.275-9.356.199-19.51-.23-30.459 4.625-.244 9.18-.466 13.668-.665zm3.33 28.022v-.268a2.796 2.796 0 014.777-2.112 2.803 2.803 0 01.816 2.105v.275a2.804 2.804 0 01-2.728 2.658 2.82 2.82 0 01-2.842-2.658h-.022zm.879-6.05a984.294 984.294 0 00-.527-21.52l5.653-.276c-.51 9.04-.845 16.272-1.008 21.696l-4.118.1z" fill="url(#paint1_linear_706_70)"/><defs><linearGradient id="paint0_linear_706_70" x1="26.883" y1="80.849" x2="40.107" y2="39.764" gradientUnits="userSpaceOnUse"><stop stop-color="#013B95"/><stop offset="1" stop-color="#0496EA"/></linearGradient><linearGradient id="paint1_linear_706_70" x1="50.42" y1="-5.767" x2="18.762" y2="53.331" gradientUnits="userSpaceOnUse"><stop stop-color="#02E1CA"/><stop offset="1" stop-color="#009FB9"/></linearGradient></defs></svg>