<svg width="93" height="96" viewBox="0 0 93 96" fill="none" xmlns="http://www.w3.org/2000/svg"><path d="M2.713 69.34v.036c1.17 5.147 2.85 9.6 4.992 13.237l.023.04c3.38 5.626 9.419 9.431 17.948 11.31 4.288.946 10.003 1.425 16.977 1.425 12.423 0 23.14-2.008 31.847-5.968 14.503-6.56 17.548-16.461 17.548-23.596 0-.627-.033-1.257-.089-1.883a23.76 23.76 0 00.089-2.074c0-4.264-1.313-8.627-3.868-12.931a42.32 42.32 0 00-2.04-3.156c3.569-4.13 5.452-8.999 5.452-14.136 0-.656-.03-1.312-.092-2.008.059-.656.092-1.312.092-1.948 0-5.663-2.136-13.683-12.293-19.723C73.913 4.75 66.992 2.46 58.734 1.161A94.626 94.626 0 0043.939 0a94.663 94.663 0 00-20.34 2.296C16.836 3.76 13.008 5.173 10.807 7.017c-4.842 4.025-7.992 10.98-9.36 20.667-.525 3.69-.794 8.74-.794 15.002v3.957C.636 55.5 1.345 63.13 2.712 69.34z" fill="#F6A400"/><path d="M82.442 50.166a32.15 32.15 0 00-6.062-7.621c.18-.551.984-1.968 4.153-5.426 3.021-3.28 4.55-6.978 4.55-11.02 0-6.15-3.238-11.192-9.622-14.988-4.79-2.86-11.065-4.92-18.65-6.111A89.385 89.385 0 0042.85 3.907a89.31 89.31 0 00-19.195 2.188c-5.63 1.22-9.06 2.395-10.497 3.592-3.76 3.123-6.263 8.914-7.434 17.207-.489 3.434-.738 8.201-.738 14.22 0 8.442.656 15.669 1.932 21.485 1.043 4.593 2.51 8.506 4.363 11.652 2.579 4.291 7.444 7.253 14.464 8.799 3.91.862 9.235 1.312 15.822 1.312 11.652 0 21.619-1.847 29.63-5.488 9.513-4.311 14.335-10.564 14.335-18.581.007-3.28-1.036-6.7-3.09-10.127z" fill="#FFE560"/><path d="M29.81 83.732c-5.708-1.66-9.743-4.403-12.007-8.175-1.854-3.146-3.323-7.066-4.363-11.653-1.283-5.816-1.932-13.043-1.932-21.484 0-6.003.246-10.786.735-14.22 1.17-8.294 3.674-14.084 7.436-17.207 1.43-1.197 4.862-2.375 10.498-3.592a89.362 89.362 0 0119.198-2.188 89.232 89.232 0 0113.82 1.072c-2.007-.5-4.132-.929-6.374-1.285A89.385 89.385 0 0042.86 3.907a89.31 89.31 0 00-19.194 2.188c-5.63 1.22-9.06 2.395-10.497 3.592-3.76 3.123-6.263 8.914-7.434 17.207-.489 3.434-.738 8.201-.738 14.22 0 8.442.656 15.669 1.932 21.485 1.043 4.593 2.51 8.506 4.363 11.652 2.579 4.291 7.444 7.253 14.464 8.799 1.216.264 2.568.492 4.055.682z" fill="#FFFAC9"/><path d="M11.557 39.488a1.53 1.53 0 01-1.519-1.5c-.023-.941-.446-23.14 10.685-29.403a1.506 1.506 0 012.066.597 1.549 1.549 0 01-.59 2.093c-9.514 5.36-9.127 26.425-9.123 26.638a1.524 1.524 0 01-1.48 1.575h-.04zM25.857 9.98a1.522 1.522 0 01-1.47-1.155 1.539 1.539 0 011.092-1.874c.128-.032 3.18-.826 5.203-1.236a1.526 1.526 0 011.788 1.21 1.535 1.535 0 01-1.194 1.808c-1.942.393-5.006 1.19-5.039 1.197-.124.033-.252.05-.38.05z" fill="#fff"/><path d="M51.763 29.931l-.525-.505a1.086 1.086 0 010-1.581l.525-.505a3.672 3.672 0 000-5.338 4.048 4.048 0 00-5.557 0l-.525.506a1.2 1.2 0 01-1.64 0l-.525-.502a4.048 4.048 0 00-5.558 0 3.675 3.675 0 000 5.337l.525.505a1.087 1.087 0 010 1.582l-.525.505a3.676 3.676 0 000 5.337 3.99 3.99 0 002.779 1.106 3.98 3.98 0 002.779-1.106l.525-.505a1.204 1.204 0 011.64 0l.525.505a3.99 3.99 0 002.778 1.106 3.99 3.99 0 002.779-1.106 3.674 3.674 0 000-5.34z" fill="#FFD30F"/><path d="M48.486 27.845l1.86-1.788a1.89 1.89 0 00.246-2.503 2.043 2.043 0 00-3.012-.233l-1.9 1.827a1.204 1.204 0 01-1.64 0l-1.846-1.774a2.096 2.096 0 00-2.756-.145 1.86 1.86 0 00-.102 2.789l1.9 1.827a1.089 1.089 0 01.252 1.221 1.087 1.087 0 01-.252.36l-1.857 1.785a1.89 1.89 0 00-.25 2.506 2.041 2.041 0 003.012.23l1.9-1.824a1.204 1.204 0 011.64 0l1.866 1.788a2.09 2.09 0 002.625.236 1.865 1.865 0 00.24-2.89l-1.903-1.828a1.085 1.085 0 01-.023-1.584z" fill="#F6A400"/><path d="M51.763 60.3l-.525-.506a1.09 1.09 0 010-1.584l.525-.502a3.673 3.673 0 00.85-4.124 3.672 3.672 0 00-.85-1.217 4.055 4.055 0 00-5.557 0l-.525.505a1.197 1.197 0 01-1.64 0l-.525-.505a4.055 4.055 0 00-5.558 0 3.678 3.678 0 000 5.34l.525.502a1.09 1.09 0 010 1.585l-.525.505a3.674 3.674 0 000 5.338 3.985 3.985 0 002.779 1.102 3.976 3.976 0 002.779-1.102l.525-.506a1.204 1.204 0 011.64 0l.525.506a3.985 3.985 0 002.778 1.102 3.985 3.985 0 002.779-1.102 3.673 3.673 0 000-5.338z" fill="#FFD30F"/><path d="M48.486 58.21l1.86-1.785a1.893 1.893 0 00.246-2.506 2.043 2.043 0 00-3.012-.23l-1.9 1.827a1.204 1.204 0 01-1.64 0l-1.846-1.778a2.1 2.1 0 00-2.756-.14 1.861 1.861 0 00-.102 2.788l1.9 1.823a1.09 1.09 0 010 1.585l-1.857 1.785a1.89 1.89 0 00-.25 2.506 2.041 2.041 0 003.012.23l1.9-1.824a1.198 1.198 0 011.64 0l1.857 1.784a2.09 2.09 0 002.624.236 1.863 1.863 0 00.24-2.89l-1.903-1.827a1.09 1.09 0 01-.013-1.584z" fill="#F6A400"/><path d="M84.306 48.978a35.19 35.19 0 00-5.18-6.889 41.084 41.084 0 012.992-3.54c3.408-3.677 5.124-7.893 5.124-12.511a17.455 17.455 0 00-2.766-9.576c-1.791-2.785-4.458-5.25-7.926-7.31-5.025-3.001-11.56-5.15-19.417-6.383a91.276 91.276 0 00-14.296-1.122A91.526 91.526 0 0023.18 3.884c-6.135 1.312-9.658 2.579-11.413 4.048-4.186 3.478-6.948 9.734-8.202 18.591-.501 3.533-.757 8.421-.757 14.53 0 8.6.656 15.989 1.984 21.979 1.093 4.81 2.648 8.943 4.616 12.285 2.897 4.826 8.23 8.123 15.855 9.803 4.061.895 9.543 1.348 16.284 1.348 11.961 0 22.23-1.913 30.51-5.682 5.058-2.296 8.948-5.17 11.556-8.552A19.247 19.247 0 0087.675 60.2c.036-3.655-1.11-7.434-3.37-11.223zM79.46 62.953a1.283 1.283 0 001.555.951c1.382-.299 2.8-.387 4.21-.262-1.208 6.39-5.906 11.482-14.022 15.16-8.01 3.64-17.977 5.488-29.63 5.488-6.587 0-11.911-.437-15.821-1.313-7.02-1.545-11.886-4.504-14.464-8.795-1.854-3.149-3.32-7.066-4.363-11.655-1.283-5.817-1.932-13.044-1.932-21.484 0-6.004.249-10.787.738-14.221 1.17-8.294 3.674-14.084 7.433-17.207 1.43-1.197 4.862-2.372 10.498-3.608a89.31 89.31 0 0119.194-2.188 88.99 88.99 0 0113.962 1.095c7.585 1.191 13.86 3.248 18.65 6.109 4.593 2.736 7.565 6.114 8.857 10.09a15.854 15.854 0 00-6.207.703 1.312 1.312 0 00-.547 2.08 1.28 1.28 0 001.39.37c.037 0 3.153-1.06 5.99-.433.096.717.143 1.439.142 2.162a16.078 16.078 0 00-5.436.285 1.313 1.313 0 00-.938 1.575 1.288 1.288 0 001.555.948c1.508-.326 3.06-.4 4.593-.217-.519 3.048-1.969 5.876-4.33 8.435-3.186 3.45-3.974 4.874-4.154 5.426a32.15 32.15 0 016.063 7.62 22.586 22.586 0 012.581 6.151 15.847 15.847 0 00-6.157.705 1.313 1.313 0 00-.797 1.64 1.282 1.282 0 001.64.811c.036 0 2.998-1.007 5.78-.479.036.446.056.89.056 1.332 0 .282 0 .561-.02.84a16.148 16.148 0 00-5.124.328 1.312 1.312 0 00-.945 1.558z" fill="#FFD30F"/></svg>