<svg width="94" height="94" viewBox="0 0 94 94" fill="none" xmlns="http://www.w3.org/2000/svg"><path d="M89.717 55.316c-.816-4.889-3.247-10.682-7.22-17.205-3.326-5.502-6.853-10.256-10.514-14.125l-.021-.022c-6.512-6.81-11.583-11.21-15.529-13.426l-.016.003c-5.3-2.962-11.291-3.911-17.81-2.824a26.649 26.649 0 00-13.884 6.677c-2.993 2.713-5.543 6.32-7.588 10.741-.935 2.033-2.182 5.33-3.821 10.065A83.969 83.969 0 009.27 51.518c-.95 6.395-1.049 11.94-.29 16.487.096.58.208 1.148.33 1.707.065.56.14 1.12.228 1.645 1.035 6.204 3.356 11.179 6.895 14.791 3.969 4.05 8.834 5.729 14.065 4.857 3.666-.611 7.056-2.4 10.073-5.314 2.886-2.79 5.009-6.317 6.306-10.478l.01-.037a23.83 23.83 0 01.63-1.85c.944-.315 2.995-.88 7.222-1.639a38.653 38.653 0 005.958 6.606l.057.05c1.995 1.685 4.533 2.959 7.53 3.776 2.995.817 5.794 1.034 8.334.61 5.317-.887 9.413-3.855 11.846-8.572 2.212-4.282 2.823-9.49 1.825-15.48a27.247 27.247 0 00-.306-1.54 49.778 49.778 0 00-.266-1.82z" fill="#F5516D"/><path d="M77.376 39.368c-3.155-5.213-6.474-9.697-9.907-13.324-6.1-6.381-10.96-10.614-14.441-12.578-4.354-2.434-9.331-3.207-14.79-2.297a22.075 22.075 0 00-11.539 5.535c-2.53 2.288-4.711 5.394-6.488 9.233-.858 1.857-2.088 5.124-3.655 9.67a79.278 79.278 0 00-3.823 15.434c-.879 5.903-.982 10.954-.306 15.009.87 5.22 2.755 9.34 5.601 12.242 2.894 2.945 6.255 4.139 9.983 3.517 2.726-.454 5.292-1.825 7.619-4.076 2.327-2.25 4.027-5.093 5.085-8.498 1.008-3.328 1.647-4.02 1.877-4.161l.02-.003c.864-.593 3.602-1.58 11.743-2.938.52-.087 1.256.527 2.077 1.733a34.304 34.304 0 005.586 6.325c1.473 1.246 3.406 2.2 5.75 2.84 2.343.641 4.477.811 6.353.498 3.875-.646 6.729-2.704 8.486-6.111 1.726-3.353 2.19-7.564 1.365-12.512-.712-4.3-2.934-9.524-6.596-15.538z" fill="#FF92AA"/><path d="M73.474 73.209c-2.341-.641-4.266-1.597-5.75-2.841a34.36 34.36 0 01-5.584-6.328 7.648 7.648 0 00-.934-1.15 2.34 2.34 0 00-.745-.527c-2.258-1.152-6.286-.209-6.286-.209.685.026 1.262.472 1.677.926.171.203.359.434.53.697l.195.273a34.102 34.102 0 005.445 6.132c1.473 1.245 3.406 2.2 5.75 2.84 2.344.641 4.477.81 6.353.498l.342-.057c-.322-.083-.658-.162-.993-.254zM38.238 11.17a22.075 22.075 0 00-11.539 5.534c-2.53 2.288-4.711 5.394-6.488 9.233-.858 1.857-2.088 5.124-3.655 9.67a79.278 79.278 0 00-3.823 15.434c-.879 5.903-.982 10.954-.306 15.009.87 5.22 2.755 9.34 5.601 12.242 2.894 2.945 6.255 4.139 9.983 3.517.233-.039.464-.077.694-.138a12.165 12.165 0 01-4.975-3.193c-2.844-2.903-4.728-7.022-5.598-12.242-.676-4.056-.576-9.106.303-15.009a79.096 79.096 0 013.826-15.433c1.567-4.547 2.795-7.803 3.655-9.672 1.774-3.838 3.956-6.944 6.485-9.231a22.092 22.092 0 0111.536-5.55 28.533 28.533 0 012.2-.274 24.473 24.473 0 00-7.9.102z" fill="#FFC4DA"/><path d="M18.108 57.255c-.11.018-.223.022-.335.013a1.324 1.324 0 01-1.182-1.44c.087-.983 2.252-24.187 12.366-37.2a1.296 1.296 0 011.835-.215 1.333 1.333 0 01.221 1.854C21.366 32.657 19.201 55.84 19.18 56.074a1.307 1.307 0 01-1.072 1.18zM32.756 18.077a1.302 1.302 0 01-1.222-.479 1.33 1.33 0 01.193-1.858c3-2.448 3.479-2.605 3.685-2.671a1.306 1.306 0 011.648.85 1.318 1.318 0 01-.748 1.631c-.371.21-1.8 1.32-2.942 2.25a1.29 1.29 0 01-.614.277z" fill="#fff"/><path d="M51.197 39.185l-.561-.384a1.018 1.018 0 01-.244-1.459l.407-.545a3.434 3.434 0 00-.82-4.92 3.782 3.782 0 00-5.12.854l-.407.545a1.127 1.127 0 01-1.52.254l-.561-.384a3.782 3.782 0 00-5.12.854 3.43 3.43 0 00.82 4.92l.561.383a1.021 1.021 0 01.42 1.088c-.032.135-.093.261-.176.371l-.407.545a3.436 3.436 0 00.82 4.92c.8.544 1.78.755 2.733.59a3.725 3.725 0 002.39-1.444l.407-.545a1.127 1.127 0 011.52-.254l.561.384a3.72 3.72 0 002.73.59 3.717 3.717 0 002.39-1.444 3.434 3.434 0 00-.823-4.919z" fill="#FF708D"/><path d="M47.858 37.765l1.437-1.931a1.764 1.764 0 00-.157-2.348 1.907 1.907 0 00-2.815.252l-1.47 1.974a1.127 1.127 0 01-1.52.253l-1.978-1.353a1.972 1.972 0 00-2.56.293 1.737 1.737 0 00.335 2.584l2.032 1.392a1.017 1.017 0 01.243 1.46l-1.438 1.93a1.761 1.761 0 00.157 2.348 1.908 1.908 0 002.815-.252l1.47-1.976a1.128 1.128 0 011.52-.254l1.987 1.36a1.95 1.95 0 002.441-.181 1.743 1.743 0 00-.225-2.702l-2.031-1.39a1.018 1.018 0 01-.243-1.46z" fill="#F5516D"/><path d="M85.024 51.248a1.127 1.127 0 00-.128-.427c-1.151-3.7-3.142-7.88-5.947-12.487-3.219-5.322-6.633-9.915-10.145-13.638-6.228-6.515-11.238-10.862-14.875-12.918-4.726-2.64-10.124-3.49-16.005-2.51a23.899 23.899 0 00-12.471 5.99c-2.717 2.453-5.038 5.765-6.931 9.832-.887 1.93-2.138 5.239-3.725 9.84a81.08 81.08 0 00-3.911 15.793c-.906 6.096-1.008 11.344-.3 15.597.937 5.614 2.994 10.07 6.12 13.263a14.216 14.216 0 005.393 3.558c1.998.693 4.14.864 6.222.496 3.102-.517 5.997-2.054 8.599-4.576 2.547-2.459 4.418-5.593 5.575-9.292l-.002-.013c.666-2.206 1.108-3.002 1.253-3.226.489-.276 2.573-1.172 10.453-2.506.256.265.487.554.689.862a36.268 36.268 0 005.895 6.676c1.685 1.434 3.846 2.502 6.463 3.208 2.618.706 5.003.88 7.14.523a13.68 13.68 0 005.812-2.343 13.226 13.226 0 004.019-4.752c1.921-3.726 2.444-8.335 1.549-13.702a27.565 27.565 0 00-.742-3.248zm-2.426 16.117c-1.757 3.41-4.61 5.465-8.486 6.112-1.876.312-4.012.143-6.353-.498s-4.266-1.597-5.75-2.84a34.304 34.304 0 01-5.586-6.326c-.82-1.206-1.557-1.82-2.077-1.733-8.141 1.357-10.88 2.345-11.743 2.938l-.02.003c-.227.14-.866.833-1.877 4.161-1.058 3.405-2.77 6.261-5.085 8.499-2.315 2.237-4.893 3.62-7.62 4.076-3.727.621-7.086-.562-9.982-3.518-2.846-2.902-4.73-7.022-5.6-12.242-.677-4.055-.573-9.103.305-15.006a79.228 79.228 0 013.823-15.436c1.567-4.546 2.799-7.803 3.655-9.671 1.777-3.839 3.959-6.945 6.489-9.233a22.075 22.075 0 0111.53-5.533c5.459-.91 10.436-.137 14.79 2.296 3.47 1.967 8.34 6.197 14.441 12.582 3.422 3.626 6.755 8.107 9.906 13.32a72.237 72.237 0 013.516 6.436c-3.258-.296-6.367 1.376-6.516 1.458a1.127 1.127 0 00-.168 1.84 1.1 1.1 0 001.231.117c.034-.02 3.46-1.848 6.297-1.007a.968.968 0 00.256.04c.23.561.442 1.11.637 1.648-3.117-.449-6.164.86-6.316.925a1.127 1.127 0 00-.328 1.823 1.104 1.104 0 001.207.23c.039-.007 3.497-1.49 6.237-.495.227.823.413 1.657.556 2.499.825 4.964.368 9.174-1.364 12.529l-.005.006z" fill="#FF708D"/></svg>