<svg width="87" height="93" viewBox="0 0 87 93" fill="none" xmlns="http://www.w3.org/2000/svg"><path d="M83.115 38.493c.073-.526.11-1.056.114-1.588.157-.592.28-1.192.366-1.798.464-3.275-.442-6.987-2.784-11.36-1.736-3.232-3.567-5.755-5.437-7.498-2.692-2.51-6.116-4.648-10.17-6.354A55.408 55.408 0 0051.51 6.057c-8.925-1.265-17.1-.132-24.31 3.412a37.723 37.723 0 00-14.57 12.659c-3.138 4.594-5.05 9.218-5.692 13.74a39.32 39.32 0 00-.258 2.083c-.084.435-.16.87-.222 1.306-1.488 10.497.001 19.815 4.43 27.696 3.514 6.25 8.702 11.36 15.4 15.18 4.971 2.84 10.028 4.636 15.032 5.345 9.22 1.307 17.485.124 24.562-3.516 9.614-4.94 12.457-11.796 13.148-16.67.076-.54.125-1.08.147-1.624.144-.61.253-1.202.333-1.763.555-3.912-.314-7.75-2.581-11.418l-.016-.025a17.645 17.645 0 00-1.897-2.504 16 16 0 001.836-1.172c3.509-2.565 5.672-6.125 6.263-10.293z" fill="#2FA7CF"/><path d="M28.345 73.118c4.46 2.543 8.965 4.152 13.385 4.779 8.25 1.17 15.578.143 21.782-3.046 6.273-3.227 9.845-7.633 10.62-13.104.393-2.769-.252-5.536-1.916-8.227-1.904-3.034-4.61-4.818-8.042-5.305-1.432-.203-4.587.264-9.655 1.424-1.927.477-3.926.59-5.894.334-2.76-.392-4.849-1.407-6.204-3.017-1.356-1.61-1.886-3.306-1.62-5.182.226-1.596 1.148-2.931 2.822-4.086 1.673-1.155 3.38-1.613 5.107-1.368 1.33.189 4.406 1.513 9.133 3.936a18.948 18.948 0 005.872 1.979c3.985.565 7.383-.168 10.1-2.175 2.487-1.82 3.958-4.215 4.369-7.116.316-2.226-.426-4.979-2.265-8.416-1.49-2.79-3.005-4.89-4.498-6.281-2.275-2.133-5.249-3.973-8.801-5.467a50.766 50.766 0 00-12.544-3.52C42.11 8.128 34.84 9.13 28.493 12.239a33.043 33.043 0 00-12.744 11.084c-2.719 3.983-4.369 7.923-4.905 11.709-1.337 9.433-.036 17.736 3.866 24.68 3.094 5.497 7.68 10.009 13.635 13.406z" fill="#85F4FF"/><path d="M73.81 52.46c-2.21-3.522-5.36-5.595-9.361-6.163-1.152-.163-3.363-.144-10.322 1.457a14.156 14.156 0 01-5.216.303c-2.295-.326-3.99-1.122-5.039-2.37-1.002-1.19-1.383-2.362-1.196-3.685.093-.66.402-1.662 2.016-2.782 1.272-.888 2.523-1.23 3.787-1.05.51.072 2.367.582 8.547 3.746a20.783 20.783 0 006.458 2.17c4.494.638 8.338-.212 11.47-2.524 2.912-2.128 4.638-4.952 5.125-8.386.375-2.648-.434-5.79-2.47-9.592-1.586-2.96-3.234-5.24-4.876-6.772-2.452-2.285-5.599-4.232-9.35-5.82A52.552 52.552 0 0050.38 7.343c-8.363-1.185-15.993-.124-22.685 3.153A34.912 34.912 0 0014.218 22.2c-2.891 4.231-4.635 8.447-5.214 12.53-1.397 9.857-.019 18.566 4.094 25.884 3.26 5.799 8.085 10.548 14.328 14.114 4.664 2.666 9.39 4.345 14.044 5.004 8.638 1.225 16.34.137 22.894-3.234 6.85-3.524 10.766-8.411 11.633-14.525.457-3.226-.279-6.422-2.183-9.502l-.004-.012zM63.52 74.8c-6.204 3.192-13.531 4.216-21.782 3.046-4.42-.626-8.925-2.233-13.385-4.779-5.955-3.397-10.541-7.905-13.634-13.391-3.902-6.945-5.203-15.247-3.867-24.677.537-3.789 2.187-7.729 4.906-11.712a33.043 33.043 0 0112.744-11.084c6.348-3.11 13.616-4.111 21.603-2.98a50.772 50.772 0 0112.544 3.52c3.552 1.495 6.511 3.333 8.801 5.468 1.493 1.392 3.007 3.506 4.498 6.28 1.813 3.383 2.554 6.092 2.278 8.307a13.734 13.734 0 00-5.192-1.509 1.135 1.135 0 00-1.178 1.053 1.135 1.135 0 001.037 1.193c.031.004 2.732.192 4.781 1.537-.175.476-.385.939-.629 1.383a13.899 13.899 0 00-4.629-1.698 1.117 1.117 0 00-1.057 1.773c.173.238.432.4.722.45 1.287.236 2.526.68 3.67 1.314a11.917 11.917 0 01-1.905 1.736c-2.716 2.006-6.117 2.739-10.1 2.175a18.945 18.945 0 01-5.872-1.979c-4.728-2.42-7.803-3.744-9.134-3.933-1.721-.244-3.44.214-5.106 1.364-1.667 1.15-2.597 2.497-2.823 4.087-.265 1.875.265 3.57 1.62 5.182 1.356 1.613 3.444 2.625 6.205 3.017a16.02 16.02 0 005.893-.33c5.058-1.166 8.212-1.633 9.656-1.428 3.431.486 6.138 2.27 8.042 5.305.075.12.144.241.215.363a13.87 13.87 0 00-4.92 2.167 1.134 1.134 0 00.069 1.866 1.101 1.101 0 001.233-.048c.025-.02 2.214-1.594 4.635-1.881.212.552.384 1.118.516 1.694-1.51.3-2.96.845-4.293 1.612a1.135 1.135 0 00-.096 1.865 1.102 1.102 0 001.235.06 12.194 12.194 0 013.429-1.312 11.2 11.2 0 01-.105 1.83c-.78 5.461-4.352 9.867-10.625 13.095z" fill="#39D3ED"/><path d="M69.005 50.086a11.02 11.02 0 00-4.832-1.862c-1.433-.203-4.587.263-9.656 1.424a16.191 16.191 0 01-5.433.376c-2.244-.172-4.336-1.26-6.248-2.622A16.452 16.452 0 0056.722 52c1.084-.048 2.16-.2 3.215-.452 4.464-1.015 7.443-1.498 9.068-1.462z" fill="#BFFCFF"/><path d="M20.145 61.625c-3.902-6.944-5.203-15.247-3.866-24.68.537-3.788 2.184-7.71 4.905-11.708a33.018 33.018 0 0112.744-11.085c6.348-3.11 13.614-4.111 21.6-2.98 2.297.336 4.567.835 6.793 1.494a50.588 50.588 0 00-12.206-3.38c-7.986-1.133-15.256-.13-21.603 2.979a33.042 33.042 0 00-12.744 11.084c-2.718 3.983-4.368 7.923-4.905 11.709-1.337 9.432-.036 17.735 3.867 24.68 3.09 5.494 7.676 10.005 13.633 13.39a40.189 40.189 0 009.56 3.994 43.761 43.761 0 01-4.141-2.085c-5.973-3.41-10.56-7.92-13.637-13.412z" fill="#BFFCFF"/><path d="M18.113 59.108a1.306 1.306 0 01-1.01-.761c-.119-.267-2.95-6.66-2.844-15.214a33.4 33.4 0 013.213-14.117c2.58-5.384 6.699-10.093 12.247-13.99a1.303 1.303 0 011.826.333 1.341 1.341 0 01-.334 1.852c-9.34 6.562-14.16 15.258-14.323 25.845a37.063 37.063 0 002.61 14.183 1.339 1.339 0 01-.656 1.76c-.227.107-.48.145-.729.11zM34.026 15.335a1.313 1.313 0 01-1.033-.794 1.347 1.347 0 01.695-1.749c.393-.168 2.368-1.025 2.815-1.188a1.307 1.307 0 011.679.811 1.339 1.339 0 01-.8 1.7c-.301.103-1.787.746-2.664 1.13a1.3 1.3 0 01-.692.09z" fill="#fff"/></svg>